<svg width="222" height="32" viewBox="0 0 222 32" fill="none" xmlns="http://www.w3.org/2000/svg">
<g clip-path="url(#clip0_2140_7666)">
<path d="M209.5 0.71875H203.942L191.052 31.4224H197.854L200.405 25.2633H212.548L214.866 31.4224H221.815L209.5 0.71875ZM201.911 20.3651L206.65 6.25334L211.391 20.3651H201.908H201.911Z" fill="white"/>
<path d="M25.3733 25.731V31.4224H0V0.71875H25.1306V5.6762H5.8424V7.30994C5.83944 8.70987 5.83944 10.1068 5.83944 11.4742V12.8771H21.9016V18.2489H5.58786V25.728H11.5694C12.5165 25.7546 13.2978 25.7576 14.0348 25.7398C14.3159 25.7339 14.5971 25.7339 14.8783 25.731H18.5335C19.3 25.7339 20.0636 25.7369 20.8243 25.7369H21.3836C21.9578 25.7398 22.5557 25.7428 23.1417 25.728H25.3703L25.3733 25.731Z" fill="white"/>
<path d="M55.1977 26.2045H36.6346V0.71875H31.1089V31.4224H55.1977V26.2045Z" fill="white"/>
<path d="M160.242 0.71875H154.702V31.4224H160.242V0.71875Z" fill="white"/>
<path d="M115.427 18.9356C114.565 17.0118 112.958 15.745 111.327 14.9163C109.694 14.0876 108.033 13.6969 107.066 13.5223C105.494 13.2411 103.869 13.1228 102.297 13.0103H102.253C100.353 12.8682 98.3877 12.7291 96.4936 12.2911C94.8391 11.9152 93.8565 11.2138 93.5605 10.2104C93.155 8.83418 94.2797 7.47273 95.5672 6.73282C97.6567 5.54303 100.3 5.17603 103.011 5.69693C105.023 6.08465 107.057 6.93703 109.226 8.29256L113.834 4.83271C110.531 2.26371 106.015 0.493822 101.729 0.0883465C95.2179 -0.527266 91.5746 2.08909 89.6715 4.39171C87.5879 6.91336 87.0847 10.4679 88.4462 13.031C90.1243 16.189 93.9275 17.2545 96.0437 17.6037C97.491 17.8464 98.9856 17.9293 100.433 18.0151L100.59 18.024C102.185 18.1157 103.837 18.2134 105.438 18.5094C106.272 18.6662 107.347 18.9208 108.243 19.5216C109.191 20.1609 109.791 21.1257 109.845 22.0965C109.898 23.0702 109.415 24.0824 108.548 24.8075C107.9 25.3551 107.045 25.7606 105.873 26.0772C101.149 27.3529 95.8779 26.2104 92.1132 23.088L92.0777 23.0643C92.0244 23.0169 91.9712 22.9755 91.9179 22.9311L86.7681 26.8053C91.252 30.1527 96.8043 31.9936 102.413 31.9936C105.399 31.9907 109.602 31.4195 112.733 28.7262C115.699 26.166 116.835 22.0462 115.435 18.9296L115.427 18.9356Z" fill="white"/>
<path d="M125.846 31.4224V17.4971H143.343V31.4224H149.088V0.71875H143.177V12.4124H125.846V0.71875H119.932V31.4224H125.846Z" fill="white"/>
<path d="M196.116 0.71875L183.298 31.4195H177.388L164.776 0.71875H171.027L180.457 25.2041L189.652 0.71875H196.116Z" fill="white"/>
<path d="M77.818 0.71582L66.4884 18.8882V31.4195H60.942V18.8853L49.6567 0.71582H55.9816L63.7152 13.1938L71.4488 0.71582H77.818Z" fill="white"/>
</g>
<defs>
<clipPath id="clip0_2140_7666">
<rect width="221.816" height="32" fill="white"/>
</clipPath>
</defs>
</svg>
