<svg width="153" height="22" viewBox="0 0 153 22" fill="none" xmlns="http://www.w3.org/2000/svg">
<g clip-path="url(#clip0_2140_4419)">
<path d="M144.031 0.494141H140.21L131.348 21.6029H136.024L137.778 17.3685H146.127L147.72 21.6029H152.498L144.031 0.494141ZM138.814 14.001L142.071 4.29917L145.331 14.001H138.812H138.814Z" fill="black"/>
<path d="M17.4441 17.69V21.6029H0V0.494141H17.2773V3.90239H4.01665V5.02559C4.01461 5.98804 4.01461 6.94845 4.01461 7.88852V8.853H15.0573V12.5461H3.84166V17.688H7.95394C8.60507 17.7063 9.14225 17.7083 9.64891 17.6961C9.84221 17.6921 10.0355 17.6921 10.2288 17.69H12.7418C13.2688 17.6921 13.7937 17.6941 14.3167 17.6941H14.7013C15.096 17.6961 15.507 17.6982 15.9099 17.688H17.4421L17.4441 17.69Z" fill="black"/>
<path d="M37.9482 18.0156H25.1861V0.494141H21.3872V21.6029H37.9482V18.0156Z" fill="black"/>
<path d="M110.167 0.494141H106.357V21.6029H110.167V0.494141Z" fill="black"/>
<path d="M79.3561 13.0183C78.7639 11.6957 77.6591 10.8248 76.5379 10.255C75.4147 9.68529 74.2732 9.4167 73.6078 9.29665C72.5273 9.10334 71.4103 9.02195 70.3298 8.94463H70.2993C68.9929 8.84696 67.6418 8.75133 66.3396 8.45018C65.2022 8.19177 64.5266 7.70952 64.3231 7.01973C64.0444 6.07356 64.8176 5.13757 65.7027 4.62887C67.1393 3.81089 68.9563 3.55858 70.8202 3.9167C72.2038 4.18326 73.6017 4.76927 75.0932 5.7012L78.2613 3.32255C75.9905 1.55636 72.8855 0.339564 69.9391 0.0607992C65.4626 -0.362434 62.9578 1.43631 61.6494 3.01936C60.217 4.75299 59.871 7.19676 60.807 8.95888C61.9608 11.13 64.5754 11.8625 66.0303 12.1026C67.0253 12.2695 68.0529 12.3264 69.0479 12.3854L69.1557 12.3915C70.2525 12.4546 71.3879 12.5218 72.4887 12.7252C73.0625 12.8331 73.8011 13.0081 74.4177 13.4211C75.0688 13.8607 75.4818 14.524 75.5185 15.1914C75.5551 15.8608 75.2234 16.5567 74.6272 17.0553C74.1816 17.4317 73.5936 17.7104 72.7878 17.9282C69.5403 18.8052 65.9164 18.0197 63.3281 15.873L63.3037 15.8568C63.2671 15.8242 63.2305 15.7957 63.1938 15.7652L59.6533 18.4287C62.736 20.7301 66.5532 21.9957 70.4091 21.9957C72.4622 21.9937 75.3516 21.6009 77.5044 19.7493C79.5433 17.9892 80.3246 15.1568 79.3622 13.0142L79.3561 13.0183Z" fill="black"/>
<path d="M86.5186 21.6029V12.0293H98.5482V21.6029H102.498V0.494141H98.4343V8.53354H86.5186V0.494141H82.4531V21.6029H86.5186Z" fill="black"/>
<path d="M134.83 0.494141L126.017 21.6009H121.954L113.284 0.494141H117.581L124.064 17.3278L130.386 0.494141H134.83Z" fill="black"/>
<path d="M53.5001 0.492188L45.7109 12.9857V21.601H41.8978V12.9837L34.1392 0.492188H38.4875L43.8043 9.0708L49.1212 0.492188H53.5001Z" fill="black"/>
</g>
<defs>
<clipPath id="clip0_2140_4419">
<rect width="152.498" height="22" fill="white"/>
</clipPath>
</defs>
</svg>
