<svg width="236" height="34" viewBox="0 0 236 34" fill="none" xmlns="http://www.w3.org/2000/svg">
<g clip-path="url(#clip0_6001_1266)">
<path d="M222.594 0.76416H216.688L202.993 33.3868H210.22L212.93 26.8428H225.833L228.295 33.3868H235.679L222.594 0.76416ZM214.531 21.6384L219.565 6.64466L224.603 21.6384H214.528H214.531Z" fill="black"/>
<path d="M26.9591 27.3396V33.3868H0V0.76416H26.7013V6.03145H6.20755V7.7673C6.2044 9.25472 6.2044 10.739 6.2044 12.1918V13.6824H23.2704V19.3899H5.93711V27.3365H12.2925C13.2987 27.3648 14.1289 27.3679 14.9119 27.3491C15.2107 27.3428 15.5094 27.3428 15.8082 27.3396H19.6918C20.5063 27.3428 21.3176 27.3459 22.1258 27.3459H22.7201C23.3302 27.3491 23.9654 27.3522 24.5881 27.3365H26.956L26.9591 27.3396Z" fill="black"/>
<path d="M58.6476 27.8428H38.9243V0.76416H33.0532V33.3868H58.6476V27.8428Z" fill="black"/>
<path d="M170.257 0.76416H164.371V33.3868H170.257V0.76416Z" fill="black"/>
<path d="M122.641 20.1192C121.726 18.0752 120.018 16.7293 118.285 15.8488C116.549 14.9683 114.785 14.5532 113.757 14.3676C112.087 14.0689 110.361 13.9431 108.691 13.8236H108.644C106.625 13.6727 104.537 13.5249 102.524 13.0595C100.766 12.6601 99.7224 11.9148 99.4079 10.8488C98.9771 9.38651 100.172 7.93996 101.54 7.1538C103.76 5.88965 106.568 5.49971 109.449 6.05317C111.587 6.46512 113.748 7.37078 116.053 8.81103L120.949 5.13493C117.439 2.40537 112.641 0.524869 108.087 0.0940512C101.169 -0.560037 97.2978 2.21984 95.2758 4.66638C93.062 7.34562 92.5274 11.1224 93.9739 13.8456C95.7569 17.201 99.7978 18.333 102.046 18.7041C103.584 18.962 105.172 19.05 106.71 19.1412L106.876 19.1507C108.571 19.2481 110.326 19.3519 112.027 19.6664C112.914 19.833 114.056 20.1035 115.009 20.7419C116.015 21.4211 116.653 22.4463 116.71 23.4777C116.766 24.5123 116.254 25.5878 115.332 26.3582C114.644 26.94 113.735 27.3708 112.49 27.7073C107.471 29.0626 101.87 27.8488 97.8702 24.5312L97.8324 24.506C97.7758 24.4557 97.7192 24.4117 97.6626 24.3645L92.1909 28.4808C96.9551 32.0374 102.854 33.9934 108.814 33.9934C111.987 33.9903 116.452 33.3834 119.779 30.5217C122.93 27.8016 124.137 23.4242 122.65 20.1129L122.641 20.1192Z" fill="black"/>
<path d="M133.711 33.3868V18.5912H152.302V33.3868H158.406V0.76416H152.126V13.1887H133.711V0.76416H127.428V33.3868H133.711Z" fill="black"/>
<path d="M208.374 0.76416L194.754 33.3837H188.475L175.075 0.76416H181.717L191.736 26.7799L201.506 0.76416H208.374Z" fill="black"/>
<path d="M82.6816 0.76123L70.6439 20.0694V33.3839H64.7508V20.0663L52.7603 0.76123H59.4804L67.6974 14.0191L75.9143 0.76123H82.6816Z" fill="black"/>
</g>
<defs>
<clipPath id="clip0_6001_1266">
<rect width="235.679" height="34" fill="white"/>
</clipPath>
</defs>
</svg>
